<svg xmlns="http://www.w3.org/2000/svg" width="24" height="24" viewBox="0 0 24 24" fill="none" stroke="currentColor" stroke-width="2" stroke-linecap="round" stroke-linejoin="round" class="icon icon-tabler icon-tabler-building-fortress">
  <path stroke="none" d="M0 0h24v24H0z" fill="none"/>
  <path d="M7 21v-2a3 3 0 0 1 3 -3h4a3 3 0 0 1 3 3v2" />
  <path d="M5 21v-7h-2v-6h2v-2a1 1 0 0 1 1 -1h2v-2a1 1 0 0 1 1 -1h6a1 1 0 0 1 1 1v2h2a1 1 0 0 1 1 1v2h2v6h-2v7" />
  <path d="M11 7h2" />
  <path d="M8 7v-2" />
  <path d="M16 7v-2" />
</svg>